# xmcd
# 
# Track frame offsets:
#	150
#	15470
#	35172
#	57770
#	77142
#	91652
#	110157
#	124610
#	145655
#	163995
#	182850
#
# Disc length: 2759 seconds
#
# Revision: 1
# Processed by: cddbd v1.4PL0 Copyright (c) Steve Scherf et al.
# Submitted via: Audio-CD-Archiv 2.10.446
#
DISCID=8f0ac50b
DTITLE=Lisa Angelle - Lisa Angelle
DYEAR=1900
DGENRE=country
TTITLE0=4,3,2,1
TTITLE1=A Woman Gets Lonely
TTITLE2=Kiss This
TTITLE3=I Didn´t Want To Know
TTITLE4=I Wear Your Love
TTITLE5=Sin
TTITLE6=Twisted
TTITLE7=Daddy´s Gun
TTITLE8=Midnight Rodeo
TTITLE9=I Don´t Know Why
TTITLE10=Sparrow
EXTD=
EXTT0=
EXTT1=
EXTT2=
EXTT3=
EXTT4=
EXTT5=
EXTT6=
EXTT7=
EXTT8=
EXTT9=
EXTT10=
PLAYORDER=
